<?xml version="1.0" encoding="UTF-8" standalone="no"?>
<!-- Created with Inkscape (http://www.inkscape.org/) -->

<svg
   xmlns:dc="http://purl.org/dc/elements/1.1/"
   xmlns:cc="http://creativecommons.org/ns#"
   xmlns:rdf="http://www.w3.org/1999/02/22-rdf-syntax-ns#"
   xmlns:svg="http://www.w3.org/2000/svg"
   xmlns="http://www.w3.org/2000/svg"
   xmlns:sodipodi="http://sodipodi.sourceforge.net/DTD/sodipodi-0.dtd"
   xmlns:inkscape="http://www.inkscape.org/namespaces/inkscape"
   width="738.49872"
   height="712.60852"
   id="svg2"
   version="1.1"
   inkscape:version="0.92.3 (2405546, 2018-03-11)"
   sodipodi:docname="pgRouting.svg">
  <defs
     id="defs4">
    <inkscape:perspective
       sodipodi:type="inkscape:persp3d"
       inkscape:vp_x="0 : 526.18109 : 1"
       inkscape:vp_y="0 : 1000 : 0"
       inkscape:vp_z="744.09448 : 526.18109 : 1"
       inkscape:persp3d-origin="372.04724 : 350.78739 : 1"
       id="perspective4078" />
    <linearGradient
       y2="11.232"
       x2="197.17"
       y1="249.007"
       x1="200.788"
       gradientUnits="userSpaceOnUse"
       id="Gradient_1">
      <stop
         id="stop5"
         stop-color="#589632"
         offset="0" />
      <stop
         id="stop7"
         stop-color="#93B023"
         offset="1" />
    </linearGradient>
    <linearGradient
       y2="16.928"
       x2="126.351"
       y1="252.718"
       x1="129.939"
       gradientUnits="userSpaceOnUse"
       id="Gradient_2">
      <stop
         id="stop10"
         stop-color="#589632"
         offset="0" />
      <stop
         id="stop12"
         stop-color="#93B023"
         offset="1" />
    </linearGradient>
  </defs>
  <sodipodi:namedview
     id="base"
     pagecolor="#ffffff"
     bordercolor="#666666"
     borderopacity="1.0"
     inkscape:pageopacity="0"
     inkscape:pageshadow="2"
     inkscape:zoom="1.1009789"
     inkscape:cx="245.68879"
     inkscape:cy="290.66322"
     inkscape:document-units="px"
     inkscape:current-layer="layer3"
     showgrid="false"
     inkscape:window-width="1600"
     inkscape:window-height="842"
     inkscape:window-x="0"
     inkscape:window-y="0"
     inkscape:window-maximized="1"
     fit-margin-top="0"
     fit-margin-left="0"
     fit-margin-right="0"
     fit-margin-bottom="0" />
  <metadata
     id="metadata7">
    <rdf:RDF>
      <cc:Work
         rdf:about="">
        <dc:format>image/svg+xml</dc:format>
        <dc:type
           rdf:resource="http://purl.org/dc/dcmitype/StillImage" />
        <dc:title />
      </cc:Work>
    </rdf:RDF>
  </metadata>
  <g
     inkscape:label="Layer 1"
     inkscape:groupmode="layer"
     id="layer1"
     style="display:inline"
     transform="translate(-3.7921744,-249.73267)">
    <path
       style="display:inline;fill:#34659a;fill-opacity:1;stroke:#ccd7e7;stroke-width:3.4000001;stroke-linecap:butt;stroke-linejoin:miter;stroke-miterlimit:4;stroke-dasharray:none;stroke-opacity:1"
       d="m 301.78066,946.30089 c -47.64218,-7.07564 -96.08613,-60.00194 -136.85721,-93.85802 -20.30293,-16.8503 -54.17143,-56.48438 -77.986051,-45.1263 -28.622166,13.65098 20.498451,70.47458 8.79921,55.64715 -16.03982,-20.32861 -39.694496,-17.18788 -35.33923,-52.84407 5.769,-47.23027 73.710601,-12.17181 87.355541,-7.55769 -4.32768,-59.70523 18.2492,-117.14908 31.54631,-135.3107 15.93238,-21.76096 32.64212,-55.43347 76.78022,-52.35273 64.15851,47.23101 136.00008,62.86982 234.17621,24.66675 21.68124,-8.43678 68.10826,17.94881 99.20918,23.24658 29.18478,4.97137 -79.92117,29.79283 -61.94677,53.317 17.5278,22.93977 9.60646,90.11884 15.46716,118.3874 3.7544,18.1091 -2.83458,23.54246 -0.68548,41.91136 -31.15594,0.64486 -60.93399,56.12588 -155.15955,54.17749 -50.3563,-50.6372 -83.69704,-10.60162 -85.35954,15.69578 z"
       id="path3034-2"
       inkscape:connector-curvature="0"
       sodipodi:nodetypes="ccssscscssssccc" />
    <path
       style="fill:#ffffff;fill-opacity:1;stroke:#91acc8;stroke-width:2.09741497;stroke-miterlimit:4;stroke-dasharray:none;stroke-opacity:1"
       d="m 577.22405,672.40999 c 4.73511,-0.63941 -15.2138,1.42864 -31.72584,9.2681 -28.8264,13.68596 -35.32441,38.47458 -34.82533,35.85542 0.49908,-2.61916 7.78863,-29.74072 18.78093,-36.56633 10.9923,-6.8256 43.03514,-7.91777 47.77024,-8.55719 z"
       id="path4002"
       inkscape:connector-curvature="0"
       sodipodi:nodetypes="zszsz" />
    <g
       id="g3959"
       transform="translate(-40.446741,42.137758)" />
    <path
       style="fill:#ffffff;fill-opacity:1;stroke:#ccd7e7;stroke-width:3;stroke-miterlimit:4;stroke-dasharray:none;stroke-opacity:1"
       id="path4000"
       d="m 434.01515,694.43271 c -5.57953,15.7984 -128.54145,-19.73636 -107.56283,-16.1994 29.93409,5.04684 78.63608,18.22258 107.56283,16.1994 z"
       inkscape:connector-curvature="0"
       sodipodi:nodetypes="csc" />
    <path
       style="display:inline;fill:#ffffff;fill-opacity:1;stroke:#ccd7e7;stroke-width:3.22716331;stroke-miterlimit:4;stroke-dasharray:none;stroke-opacity:1"
       id="path4000-0"
       d="m 458.7674,791.29396 c 5.62454,14.74273 -83.70163,37.62071 -46.94595,29.42114 37.87898,-8.45016 51.37643,-25.89458 46.94595,-29.42114 z"
       inkscape:connector-curvature="0"
       sodipodi:nodetypes="csc" />
    <g
       id="g4349"
       transform="translate(-41.210413,46.028679)">
      <path
         sodipodi:nodetypes="ssscs"
         inkscape:connector-curvature="0"
         id="path3976"
         d="m 380.24074,913.53613 c -44.07441,0 -73.76811,-51.2519 -67.87693,-108.80632 6.05152,-59.1208 27.89517,-86.09932 64.83708,-84.27905 40.19408,1.98053 72.68542,35.70402 73.81882,92.56717 -0.3996,58.0206 -26.7045,100.5182 -70.77897,100.5182 z"
         style="fill:#aed5b0;fill-opacity:1;stroke:#ffffff;stroke-width:5.54480457;stroke-miterlimit:4;stroke-opacity:0" />
      <path
         inkscape:transform-center-y="6.1643836"
         inkscape:transform-center-x="158.21918"
         sodipodi:nodetypes="ssscs"
         inkscape:connector-curvature="0"
         id="path3976-7"
         d="m 380.77204,909.38349 c -44.07441,0 -73.76811,-51.25189 -67.87693,-108.80634 6.05152,-59.1208 27.89517,-86.09932 64.83708,-84.27905 40.19408,1.98053 72.68538,35.70402 73.81884,92.56718 -0.39964,58.02062 -26.70455,100.51821 -70.77899,100.51821 z"
         style="display:inline;fill:#aed5b0;fill-opacity:0;stroke:#ffffff;stroke-width:8.44499969;stroke-miterlimit:4;stroke-dasharray:none;stroke-opacity:0.98550726" />
      <g
         transform="translate(-2.0727394,-1.0363697)"
         id="g4323">
        <path
           style="fill:none;stroke:#ccd7e7;stroke-width:5;stroke-linecap:butt;stroke-linejoin:miter;stroke-miterlimit:4;stroke-dasharray:none;stroke-opacity:1"
           d="m 350.333,905.68693 c -50.7864,-34.61046 -40.7098,-89.99311 -42.84865,-102.78039 -8.36169,-49.99115 10.25954,-50.69418 10.25954,-50.69418 -12.16951,-43.82442 9.35547,-40.67998 28.52994,-31.8492 l -26.71944,-11.90471 c 6.8493,-3.91316 6.85448,-4.25377 19.18387,-2.68683 2.17613,-17.35943 43.85106,-17.03657 38.02064,7.2131 50.80129,3.88313 76.39023,36.66665 79.79049,89.31832 2.28637,34.37843 -6.34134,56.47016 -22.58552,85.09292"
           id="path4231"
           inkscape:connector-curvature="0"
           sodipodi:nodetypes="csccccccc" />
        <path
           style="fill:#ffffff;fill-opacity:1;stroke:#ccd7e7;stroke-width:3;stroke-miterlimit:4;stroke-dasharray:none;stroke-opacity:1"
           d="m 375.1213,716.50514 c -1.20126,0.66539 -15.68371,8.4984 -16.88497,9.16379 -4.70133,-9.04967 -39.97423,-14.94517 -42.74536,-17.42079 22.78722,-8.0413 42.30102,2.86786 59.63033,8.257 z"
           id="path3997"
           inkscape:connector-curvature="0"
           sodipodi:nodetypes="cccc" />
        <path
           style="fill:#99cb9a;fill-opacity:1;stroke:#aed5b0;stroke-width:1.84200001;stroke-miterlimit:4;stroke-dasharray:none;stroke-opacity:1"
           d="m 441.58777,799.96558 c 3.52714,41.31238 -13.67336,96.69923 -59.41487,100.45112 -44.1026,2.238 -70.3792,-80.7854 -60.86985,-85.41203 8.7578,-4.26098 14.84884,-25.31362 14.20344,-32.24482 -1.46842,-15.77053 -11.61582,-30.16599 -4.12402,-29.30431 17.59354,2.02355 22.11943,-18.40679 14.52723,-32.92387 5.44992,5.7778 22.04141,15.88474 38.32818,4.91508 30.5264,-2.88595 54.69371,40.68688 57.34989,74.51883 z"
           id="path3970"
           inkscape:connector-curvature="0"
           sodipodi:nodetypes="ccsssccc" />
        <path
           style="display:inline;fill:#66959e;fill-opacity:1;stroke:#8fafb5;stroke-width:3.4000001;stroke-miterlimit:4;stroke-opacity:1"
           d="m 374.15725,712.23325 c -5.50366,13.88096 -18.59416,10.6773 -25.82701,8.67923 -7.23285,-1.99807 -4.77751,-12.78509 -2.77943,-20.01794 1.99807,-7.23285 17.54309,-7.19501 24.77594,-5.19693 7.23286,1.99807 6.2588,10.41114 3.8305,16.53564 z"
           id="path3771-5-3"
           inkscape:connector-curvature="0"
           sodipodi:nodetypes="sssss" />
        <path
           style="display:inline;fill:#66959e;fill-opacity:1;stroke:#8fafb5;stroke-width:3.4000001;stroke-miterlimit:4;stroke-opacity:1"
           d="m 344.68458,738.95953 c -5.50366,13.88097 -15.80314,13.77963 -23.03599,11.78163 -7.23285,-1.9981 -4.03005,-18.69811 -2.43047,-26.0294 1.59567,-7.31333 6.64883,-8.7798 19.3304,-5.69198 7.29076,1.77522 8.56436,13.81525 6.13606,19.93975 z"
           id="path3771-5-5"
           inkscape:connector-curvature="0"
           sodipodi:nodetypes="sssss" />
        <path
           style="display:inline;fill:#66959e;fill-opacity:1;stroke:#8fafb5;stroke-width:3.4000001;stroke-miterlimit:4;stroke-opacity:1"
           d="m 330.08077,794.23571 c -3.70679,14.4648 -8.19812,16.6179 -15.43097,14.6199 -7.23285,-1.9981 -7.25276,-36.5475 -5.25468,-43.7804 1.99807,-7.2328 6.66257,-8.718 13.88485,-6.682 7.201,2.0299 8.07436,30.8728 6.8008,35.8425 z"
           id="path3771-5-6"
           inkscape:connector-curvature="0"
           sodipodi:nodetypes="sssss" />
      </g>
    </g>
    <path
       style="display:inline;fill:#66959e;fill-opacity:1;stroke:#8fafb5;stroke-width:4.59540033;stroke-miterlimit:4;stroke-opacity:1"
       d="m 138.60892,901.80799 c -2.5097,17.38436 5.48109,23.11266 -10.68009,23.60766 -11.70025,0.3584 -30.611591,-21.47996 -26.80912,-29.40178 4.45544,-9.2822 4.49916,-14.47728 16.2049,-14.47728 11.70574,0 22.39162,12.60115 21.28431,20.2714 z"
       id="path3771-3-6-9"
       inkscape:connector-curvature="0"
       sodipodi:nodetypes="sssss" />
    <path
       style="display:inline;fill:#aed5b0;fill-opacity:1;stroke:#ffffff;stroke-width:5.54480457;stroke-miterlimit:4;stroke-opacity:0"
       d="m 560.60503,927.84783 c -44.07441,0 -23.44838,-142.30618 -15.02207,-152.33387 12.35547,-14.70357 9.64563,-18.39766 42.03694,-34.5333 36.02095,-17.94373 45.73981,27.41306 46.87321,84.27621 -0.3996,58.02062 -29.81361,102.59096 -73.88808,102.59096 z"
       id="path3976-6"
       inkscape:connector-curvature="0"
       sodipodi:nodetypes="ssscs" />
    <path
       style="display:inline;fill:#ffffff;fill-opacity:0;stroke:#ffffff;stroke-width:9.61416245;stroke-miterlimit:4;stroke-dasharray:none;stroke-opacity:0.98550726"
       d="m 575.9651,927.31007 c -43.34517,7.07152 -49.78384,-31.92708 -43.91354,-87.88052 6.03007,-57.47621 27.79631,-83.70424 64.6073,-81.93461 40.05164,1.92544 38.97087,-4.484 40.10032,50.79736 0.51294,51.85077 -15.3945,111.61109 -60.79408,119.01777 z"
       id="path3976-7-2"
       inkscape:connector-curvature="0"
       sodipodi:nodetypes="ssscs"
       inkscape:transform-center-x="157.65847"
       inkscape:transform-center-y="5.9929043" />
    <path
       style="display:inline;fill:#99cb9a;fill-opacity:1;stroke:#ffffff;stroke-width:4.68200493;stroke-miterlimit:4;stroke-opacity:0"
       d="m 563.47519,918.29724 c -36.7729,0 -19.56384,-121.61127 -12.53346,-130.18068 10.30862,-12.5653 8.04769,-15.72218 35.07294,-29.51129 30.05359,-15.33426 38.16238,23.42651 39.10802,72.02033 -0.3334,49.58296 -24.87457,87.67164 -61.6475,87.67164 z"
       id="path3976-6-1"
       inkscape:connector-curvature="0"
       sodipodi:nodetypes="ssscs"
       inkscape:transform-center-x="101.16767"
       inkscape:transform-center-y="-4.4282834" />
    <g
       id="g3094"
       transform="translate(-40.446741,42.137758)">
      <path
         sodipodi:nodetypes="ssscs"
         inkscape:connector-curvature="0"
         id="path3976-6-6"
         d="m 576.62608,692.49891 c -32.50975,0 -19.85727,-17.47831 -20.45515,-23.22094 -1.13649,-10.91593 17.33454,-30.18736 41.22673,-36.89791 26.56944,-7.46251 61.62685,10.56272 62.46286,34.2112 -0.29474,24.12984 -50.72464,25.90765 -83.23444,25.90765 z"
         style="display:inline;fill:#aed5b0;fill-opacity:1;stroke:#ffffff;stroke-width:3.07104325;stroke-miterlimit:4;stroke-opacity:0" />
      <path
         sodipodi:nodetypes="ssscs"
         inkscape:connector-curvature="0"
         id="path3976-6-6-7"
         d="m 587.50629,688.23961 c -25.08019,0 -26.98812,-15.73888 -26.50156,-21.52534 0.91785,-10.91568 19.04843,-31.74065 42.52615,-31.45755 24.29731,0.29298 51.23787,8.12571 48.18803,26.86977 -0.22739,18.95177 -39.13239,26.11312 -64.21262,26.11312 z"
         style="display:inline;fill:#99cb9a;fill-opacity:1;stroke:#ffffff;stroke-width:2.39051962;stroke-miterlimit:4;stroke-opacity:0" />
    </g>
    <path
       style="fill:#66959e;fill-opacity:1;stroke:#8fafb5;stroke-width:3.4000001;stroke-miterlimit:4;stroke-opacity:1"
       d="m 455.2088,691.2059 c -1.6088,14.84529 -15.98399,17.54716 -23.48775,17.54716 -7.50376,0 -8.14121,-11.52855 -8.14121,-19.03232 0,-7.50375 14.99388,-11.60655 22.49764,-11.60655 7.50376,0 9.84114,6.54171 9.13132,13.09171 z"
       id="path3771"
       inkscape:connector-curvature="0"
       sodipodi:nodetypes="sssss" />
    <rect
       style="fill:#ffce12;fill-opacity:1;stroke:#ffce12;stroke-width:2.77813697;stroke-miterlimit:4;stroke-dasharray:none;stroke-opacity:1"
       id="rect4115"
       width="243.0423"
       height="63.213989"
       x="450.6673"
       y="731.0473" />
    <path
       style="display:inline;fill:#ffce12;fill-opacity:1;stroke:#ffce12;stroke-width:3.87818885;stroke-miterlimit:4;stroke-opacity:1"
       d="m 693.08192,727.202 c 0.11475,40.00088 -240.44773,38.92262 -241.59463,3.68782 -1.1469,-35.23479 241.47988,-43.6887 241.59463,-3.68782 z"
       id="path3922-1-0-9"
       inkscape:connector-curvature="0"
       sodipodi:nodetypes="zzz"
       inkscape:transform-center-y="52.363395"
       inkscape:transform-center-x="1.8926739" />
    <path
       style="display:inline;fill:#ffce12;fill-opacity:1;stroke:#ecd9a1;stroke-width:3.65897012;stroke-miterlimit:4;stroke-opacity:1"
       d="m 680.23499,740.41364 c -0.2764,35.49103 -213.7774,36.29508 -214.0268,1.65647 -0.2493,-34.6386 214.3031,-37.1475 214.0268,-1.65647 z"
       id="path3922-1-0"
       inkscape:connector-curvature="0"
       sodipodi:nodetypes="zzz"
       inkscape:transform-center-y="52.593337" />
    <path
       style="display:inline;fill:#ffce12;fill-opacity:1;stroke:#ffce12;stroke-width:3.88381243;stroke-miterlimit:4;stroke-opacity:1"
       d="m 693.22226,791.27845 c -1.59537,35.34312 -243.29114,38.664 -242.32171,4.17587 0.96952,-34.48811 243.91698,-39.51899 242.32171,-4.17587 z"
       id="path3922-1-0-9-3"
       inkscape:connector-curvature="0"
       sodipodi:nodetypes="zzz"
       inkscape:transform-center-y="52.357797"
       inkscape:transform-center-x="1.8983719" />
    <path
       style="display:inline;fill:#ffffff;fill-opacity:1;stroke:#ffffff;stroke-width:3.65897012;stroke-miterlimit:4;stroke-opacity:1"
       d="m 680.20545,742.37049 c -0.2764,35.49103 -213.7774,36.29508 -214.0268,1.65647 -0.2493,-34.6386 214.3031,-37.1475 214.0268,-1.65647 z"
       id="path3922-1"
       inkscape:connector-curvature="0"
       sodipodi:nodetypes="zzz"
       inkscape:transform-center-y="52.593337" />
    <path
       style="display:inline;fill:#66959e;fill-opacity:1;stroke:#8fafb5;stroke-width:4.59540033;stroke-miterlimit:4;stroke-opacity:1"
       d="m 478.37755,730.05615 c -2.5097,17.38433 -25.15362,17.79687 -36.85935,17.79687 -11.70574,0 -11.5048,-20.39581 -11.5048,-29.18296 0,-8.78715 23.24747,-13.01193 34.95321,-13.01193 11.70574,0 14.51825,16.72778 13.41094,24.39802 z"
       id="path3771-3"
       inkscape:connector-curvature="0"
       sodipodi:nodetypes="sssss" />
    <path
       style="display:inline;fill:#66959e;fill-opacity:1;stroke:#8fafb5;stroke-width:4.85696697;stroke-miterlimit:4;stroke-opacity:1"
       d="m 474.07633,779.14814 c -2.42085,20.13238 -14.41108,19.39108 -30.00015,19.96433 -11.28607,0.41504 -16.88661,-16.34221 -13.21875,-25.51626 4.29772,-10.74948 15.4074,-22.739 26.69876,-22.739 11.29136,0 17.58826,19.40822 16.52014,28.29093 z"
       id="path3771-3-6"
       inkscape:connector-curvature="0"
       sodipodi:nodetypes="sssss" />
    <path
       style="display:inline;fill:#66959e;fill-opacity:1;stroke:#8fafb5;stroke-width:3.4000001;stroke-miterlimit:4;stroke-opacity:1"
       d="m 613.18769,670.14922 c -1.6088,14.8453 -15.98399,17.54716 -23.48775,17.54716 -7.50376,0 -8.14121,-11.52855 -8.14121,-19.03231 0,-7.50376 14.99388,-11.60655 22.49764,-11.60655 7.50376,0 9.84114,6.54171 9.13132,13.0917 z"
       id="path3771-7"
       inkscape:connector-curvature="0"
       sodipodi:nodetypes="sssss" />
    <path
       style="display:inline;fill:#66959e;fill-opacity:1;stroke:#8fafb5;stroke-width:3.62744617;stroke-miterlimit:4;stroke-opacity:1"
       d="m 649.97465,695.23643 c -5.87183,14.80954 -21.42253,13.50424 -29.13923,11.37249 -7.7167,-2.13172 -5.09711,-14.16851 -2.96536,-21.88522 2.13173,-7.71669 18.71665,-7.67633 26.43334,-5.54458 7.71671,2.13173 8.26199,9.5231 5.67125,16.05731 z"
       id="path3771-5"
       inkscape:connector-curvature="0"
       sodipodi:nodetypes="sssss" />
    <path
       sodipodi:nodetypes="cc"
       inkscape:connector-curvature="0"
       id="path3882-3-9-0"
       d="m 494.98854,639.77719 c -18.54648,10.41758 -27.22739,21.56278 -30.39709,27.00648"
       style="display:inline;fill:none;stroke:#ccd7e7;stroke-width:2.56960487;stroke-linecap:round;stroke-linejoin:miter;stroke-miterlimit:4;stroke-dasharray:none;stroke-dashoffset:0;stroke-opacity:1" />
  </g>
  <g
     inkscape:groupmode="layer"
     id="layer5"
     inkscape:label="head"
     style="display:inline">
    <g
       id="g1165"
       transform="translate(19.982218,-17.25737)">
      <path
         style="display:inline;fill:#34659a;fill-opacity:1;stroke:#ccd7e7;stroke-width:3.4000001;stroke-linecap:butt;stroke-linejoin:miter;stroke-miterlimit:4;stroke-dasharray:none;stroke-opacity:1"
         d="m 261.29766,329.59078 c 0.25612,0.17074 -4.85795,58.61549 -68.3698,72.66894 -96.41883,6.81333 -214.37318,-98.97979 -211.79805,-191.64024 8.2549,-29.30433 88.63631,-30.55989 106.82384,-36.54512 56.01527,-19.36805 94.70043,-27.77674 130.80603,-78.669731 -2.3893,-11.86233 -0.11216,-1.85782 -5.97407,-8.77708 12.07397,-27.26711 66.58885,-77.63591 131.17795,-66.52833 70.1471,-2.25285 160.489,44.20447 187.4272,103.558681 12.5799,27.71801 19.2839,45.59991 18.6965,73.86847 -0.3842,18.4902 -6.4044,36.95025 -4.2553,55.31915 2.1632,18.49006 9.3394,38.79982 21.7114,52.71009 8.5427,9.60492 38.7587,9.91938 50.9641,5.887 9.2656,-3.06111 37.1812,-37.3977 55.4513,-39.30335 15.5347,-1.62034 17.6917,0.0354 33.0234,-2.94571 12.2557,-2.383 14.1485,23.75963 -5.8043,33.1351 5.6225,45.57145 -1.7598,14.40635 -39.4429,42.91795 -29.3651,33.1835 -71.3731,47.82456 -114.4389,47.32937 -32.2882,-0.82736 -94.5123,-11.90227 -98.7676,-14.02993 -29.42974,-9.7757 -91.60978,-47.71486 -68.654,-55.48775 -4.41766,3.01689 -18.8884,11.11068 -25.1612,20.85154 19.66486,-17.38278 1.25455,41.44466 14.74095,48.69452 10.9172,-3.17568 26.76805,-27.42411 49.25785,-24.48779 15.0277,1.96206 36.2283,16.60482 62.8284,20.36826 19.0315,2.69261 -43.72949,30.47332 -47.98479,30.47332 -4.2553,0 -70.89482,13.83074 -106.90461,4.60913 -39.88998,-10.21527 -102.02661,-31.89759 -95.85428,-35.63977 8.1353,-4.93231 32.62493,-45.72386 30.50088,-58.33672 z"
         id="path3034"
         inkscape:connector-curvature="0"
         sodipodi:nodetypes="cccccccssssssscccccccsssssc" />
      <g
         transform="rotate(180,530.03066,339.28322)"
         style="display:inline"
         id="g3909-5-3">
        <path
           sodipodi:nodetypes="cc"
           inkscape:connector-curvature="0"
           id="path3882-6-6"
           d="m 469.81638,364.51299 c 9.22207,-1.17817 14.57553,-9.20416 16.31112,-19.57277"
           style="fill:none;stroke:#ccd7e7;stroke-width:2.40700006;stroke-linecap:round;stroke-linejoin:miter;stroke-miterlimit:4;stroke-dasharray:none;stroke-dashoffset:0;stroke-opacity:1" />
        <path
           sodipodi:nodetypes="cc"
           inkscape:connector-curvature="0"
           id="path3882-5-2-7"
           d="m 482.54103,368.2868 c 11.20468,-1.50762 21.01981,-20.95909 23.12853,-25.79927"
           style="display:inline;fill:none;stroke:#ccd7e7;stroke-width:2.50200009;stroke-linecap:round;stroke-linejoin:miter;stroke-miterlimit:4;stroke-dasharray:none;stroke-dashoffset:0;stroke-opacity:1" />
        <path
           sodipodi:nodetypes="cc"
           inkscape:connector-curvature="0"
           id="path3882-3-9-5"
           d="m 487.85616,372.35017 c 8.2154,-0.0865 18.40386,-6.8569 21.57356,-12.3006"
           style="display:inline;fill:none;stroke:#ccd7e7;stroke-width:2.56960487;stroke-linecap:round;stroke-linejoin:miter;stroke-miterlimit:4;stroke-dasharray:none;stroke-dashoffset:0;stroke-opacity:1" />
      </g>
    </g>
  </g>
  <g
     inkscape:groupmode="layer"
     id="layer7"
     inkscape:label="eye"
     transform="translate(-3.7921744,-249.73267)"
     style="display:inline">
    <g
       id="g1208">
      <g
         id="g3104"
         transform="translate(-657.6564,62.66964)"
         style="display:inline">
        <path
           sodipodi:nodetypes="cccsscsccc"
           inkscape:connector-curvature="0"
           d="m 1058.4473,318.83461 c -3.5605,1.43715 2.4934,-14.83093 4.0944,-15.62986 2.1334,-3.02671 5.6265,-10.72049 16.5951,-12.4329 3.6564,-1.31105 8.9402,-2.13343 12.7925,-2.09736 2.7679,0.0259 5.6251,0.27282 8.3699,0.78177 1.4613,0.27093 1.7433,2.93084 1.7433,2.93084 l -0.4841,2.66711 c -0.3826,2.10802 -5.9286,2.28932 -9.1675,2.32738 -6.8788,0.62093 -11.3284,1.27925 -15.0403,2.26239 -9.8984,4.15381 -9.4422,8.26341 -18.9033,19.19063 z"
           id="path3046"
           style="fill:#ffffff;fill-opacity:1;stroke-width:0.1;stroke-miterlimit:4;stroke-dasharray:none" />
        <path
           sodipodi:nodetypes="zcscszccz"
           inkscape:connector-curvature="0"
           id="path2985"
           d="m 1025.964,450.35785 c -3.1039,-3.83714 16.1362,-14.98605 23.4158,-17.28363 -3.5227,-50.32295 -0.6157,-56.72788 2.3073,-65.01905 12.2765,-34.82329 42.975,-35.90301 58.7854,-4.18153 6.1668,7.82644 2.5493,67.43268 4.8389,69.50225 2.2896,2.06956 23.9063,19.56671 19.0495,20.32664 -4.8569,0.75993 -11.7065,-6.59209 -19.8752,-10.23566 -14.1532,-4.85934 -46.946,-7.31746 -60.1226,-2.06868 -5.3831,2.42631 -25.2952,12.7968 -28.3991,8.95966 z"
           style="fill:#ffffff;fill-opacity:1;fill-rule:nonzero;stroke:none" />
        <path
           sodipodi:nodetypes="accsca"
           inkscape:connector-curvature="0"
           id="path2988"
           d="m 1064.7218,397.21836 c 0.7121,-8.9242 1.2548,-18.998 6.8819,-25.96104 17.2291,-20.2842 33.9017,-4.63986 37.8325,16.90134 1.6726,6.55476 0.2889,29.04137 0.035,39.85702 -0.069,2.92856 -27.4617,1.65479 -41.4404,2.22407 0,0 -4.1886,-21.9942 -3.3086,-33.02139 z"
           style="fill:#6a9af9;fill-opacity:1" />
        <path
           sodipodi:nodetypes="ssssss"
           inkscape:connector-curvature="0"
           id="path2994"
           d="m 1089.3709,393.95448 c 4.7565,10.41329 2.8938,21.48393 3.457,34.17011 0.143,3.22207 -17.0554,2.18726 -21.8703,2.21768 -6.0157,0.038 -7.6134,-12.80895 -7.0734,-20.24255 1.0637,-14.64046 -0.2166,-32.49903 10.0637,-32.49903 10.2802,0 12.3098,9.53806 15.423,16.35379 z"
           style="fill:#000000;fill-opacity:1" />
        <path
           transform="translate(690.76407,0.131237)"
           d="m 409.79604,388.77084 a 12.119893,18.736645 0 0 1 -12.11438,18.73665 12.119893,18.736645 0 0 1 -12.1254,-18.71959 12.119893,18.736645 0 0 1 12.10334,-18.75368 12.119893,18.736645 0 0 1 12.13642,18.70251 l -12.11987,0.0341 z"
           sodipodi:ry="18.736645"
           sodipodi:rx="12.119893"
           sodipodi:cy="388.77084"
           sodipodi:cx="397.67615"
           id="path2999"
           style="fill:#ffffff;fill-opacity:1"
           sodipodi:type="arc"
           sodipodi:start="0"
           sodipodi:end="6.2813648" />
      </g>
      <ellipse
         ry="10.506025"
         rx="7.1535935"
         cy="458.21475"
         cx="414.94489"
         id="path2999-1"
         style="display:inline;fill:#aed5b0;fill-opacity:1;stroke-width:0.55294597" />
      <g
         id="g3909"
         style="display:inline"
         transform="translate(-40.446741,42.13776)">
        <path
           style="fill:none;stroke:#ccd7e7;stroke-width:2.40700006;stroke-linecap:round;stroke-linejoin:miter;stroke-miterlimit:4;stroke-dasharray:none;stroke-dashoffset:0;stroke-opacity:1"
           d="m 480.79324,367.2572 c 9.22207,-1.17817 13.07258,-4.64667 14.80817,-8.42917"
           id="path3882"
           inkscape:connector-curvature="0"
           sodipodi:nodetypes="cc" />
        <path
           style="display:inline;fill:none;stroke:#ccd7e7;stroke-width:2.50200009;stroke-linecap:round;stroke-linejoin:miter;stroke-miterlimit:4;stroke-dasharray:none;stroke-dashoffset:0;stroke-opacity:1"
           d="m 483.85128,369.46855 c 11.20468,-1.50762 19.70956,-8.96862 21.81828,-13.8088"
           id="path3882-5"
           inkscape:connector-curvature="0"
           sodipodi:nodetypes="cc" />
        <path
           style="display:inline;fill:none;stroke:#ccd7e7;stroke-width:2.56960487;stroke-linecap:round;stroke-linejoin:miter;stroke-miterlimit:4;stroke-dasharray:none;stroke-dashoffset:0;stroke-opacity:1"
           d="m 486.27388,372.66663 c 10.97932,0.46628 27.58611,-14.15696 28.27374,-20.09707"
           id="path3882-3"
           inkscape:connector-curvature="0"
           sodipodi:nodetypes="cc" />
      </g>
      <path
         sodipodi:nodetypes="cccsscsccc"
         inkscape:connector-curvature="0"
         d="m 397.17392,389.06673 c -4.28176,1.84861 2.99849,-19.0771 4.9238,-20.10478 2.56557,-3.89327 6.76628,-13.78983 19.95681,-15.99251 4.39708,-1.68641 10.75123,-2.74425 15.38389,-2.69785 3.32861,0.0333 6.7646,0.35093 10.06542,1.00559 1.75732,0.34851 2.09644,3.76996 2.09644,3.76996 l -0.58216,3.43073 c -0.46011,2.71156 -7.12957,2.94475 -11.02458,2.99372 -8.27225,0.79869 -13.62322,1.6455 -18.08705,2.91013 -11.90354,5.34306 -11.35492,10.62927 -22.73257,24.68501 z"
         id="path3046-7"
         style="display:inline;fill:#ccd7e7;fill-opacity:1;stroke-width:0.1;stroke-miterlimit:4;stroke-dasharray:none" />
    </g>
  </g>
  <g
     inkscape:groupmode="layer"
     id="layer3"
     inkscape:label="qgis"
     style="display:inline">
    <g
       style="display:inline"
       id="g1058"
       transform="matrix(0.76300518,0,0,0.24019874,470.9777,462.90069)">
      <g
         id="g17" />
      <g
         id="Layer_1">
        <path
           id="polygon3"
           d="m 137.607,136.899 h 34.437 L 142.898,108.083 H 107.19 v 34.309 l 30.417,30.316 z"
           inkscape:connector-curvature="0"
           style="fill:#ee7913" />
        <path
           id="polygon10"
           d="M 248.061,212.048 186.618,151.306 H 152.01 v 35.761 l 58.881,58.682 h 37.17 z"
           inkscape:connector-curvature="0"
           style="fill:url(#Gradient_1)" />
        <path
           id="polygon12"
           d="m 152.01,151.306 h 34.608 l -14.574,-14.407 h -34.437 v 35.809 l 14.403,14.359 z"
           inkscape:connector-curvature="0"
           style="fill:#f0e64a" />
        <path
           id="path19"
           d="m 144.826,199.3 c -5.22,1.202 -10.643,1.854 -16.238,1.854 -40.027,0 -74.072,-32.914 -74.072,-75.59 0,-42.677 33.666,-74.869 74.072,-74.869 40.401,0 72.57,32.187 72.57,74.869 0,6.937 -0.863,13.619 -2.461,19.945 l 37.047,37.042 c 9.552,-16.736 14.896,-36.197 14.896,-57.274 0,-65.778 -52.493,-115.026 -122.801,-115.026 -69.99,0 -122.479,48.927 -122.479,115.026 0,66.421 52.489,116.321 122.479,116.321 18.066,0 34.952,-3.323 50.077,-9.371 z"
           inkscape:connector-curvature="0"
           style="fill:url(#Gradient_2)" />
        <path
           id="polygon4153"
           d="M 107.19,108.083 248.061,245.749 V 212.048 L 186.618,151.306 172.044,136.898 142.898,108.083 Z"
           inkscape:connector-curvature="0"
           style="fill:#ffffff;fill-opacity:0.172" />
      </g>
    </g>
  </g>
</svg>
